<svg xmlns="http://www.w3.org/2000/svg" xmlns:xlink="http://www.w3.org/1999/xlink" width="243.5" height="94.709" viewBox="0 0 243.5 94.709">
  <defs>
    <clipPath id="clip-path">
      <path id="Tracé_76" data-name="Tracé 76" d="M0,7.543H176.306V-40.686H0Z" transform="translate(0 40.686)" fill="none"/>
    </clipPath>
    <clipPath id="clip-path-8">
      <path id="Tracé_132" data-name="Tracé 132" d="M0,4.857H243.5V-25.417H0Z" transform="translate(0 25.417)" fill="none"/>
    </clipPath>
  </defs>
  <g id="Groupe_80" data-name="Groupe 80" transform="translate(-1052.623 -886.995)">
    <g id="Groupe_46" data-name="Groupe 46" transform="translate(1052.623 933.474)">
      <path id="Tracé_67" data-name="Tracé 67" d="M0-10.556H30.464V-40.685H0Z" transform="translate(0 40.686)" fill="#fff"/>
      <path id="Tracé_68" data-name="Tracé 68" d="M.758-25.659H29.192v-14.5H.758Z" transform="translate(0.141 40.783)" fill="#ff3e44"/>
      <path id="Tracé_69" data-name="Tracé 69" d="M.758-13.952H29.192V-28.167H.758Z" transform="translate(0.141 43.007)" fill="#010407"/>
      <path id="Tracé_70" data-name="Tracé 70" d="M4.949-28.9h18.5v1.728H4.949Z" transform="translate(0.918 42.872)" fill="#fff"/>
      <g id="Groupe_16" data-name="Groupe 16" transform="translate(0 0)" clip-path="url(#clip-path)">
        <g id="Groupe_11" data-name="Groupe 11" transform="translate(1.239 43.509)">
          <path id="Tracé_71" data-name="Tracé 71" d="M.414.615A3.048,3.048,0,0,0,1.685.344V-.951h.8V.78a3.892,3.892,0,0,1-2.108.613A2.4,2.4,0,0,1-2.233-.965,2.415,2.415,0,0,1,.377-3.317a3.328,3.328,0,0,1,2.072.659l-.439.652A2.559,2.559,0,0,0,.4-2.533,1.578,1.578,0,0,0-1.361-.965,1.591,1.591,0,0,0,.414.615" transform="translate(2.233 3.317)" fill="#010407"/>
        </g>
        <g id="Groupe_12" data-name="Groupe 12" transform="translate(7.072 43.647)">
          <path id="Tracé_72" data-name="Tracé 72" d="M.434.324c.514,0,.8-.268.8-.653a.642.642,0,0,0-.717-.685H-1.515V.324Zm-.62.742H-1.515V2.7h-.826v-4.45H.521A1.392,1.392,0,0,1,2.058-.329,1.37,1.37,0,0,1,.784,1.042L2.105,2.7H1.072Z" transform="translate(2.341 1.747)" fill="#010407"/>
        </g>
        <g id="Groupe_13" data-name="Groupe 13" transform="translate(12.172 43.509)">
          <path id="Tracé_73" data-name="Tracé 73" d="M.406.119a1.622,1.622,0,0,0-1.74,1.6,1.6,1.6,0,0,0,1.74,1.6,1.588,1.588,0,0,0,1.726-1.6A1.6,1.6,0,0,0,.406.119m0,3.957A2.422,2.422,0,0,1-2.188,1.718,2.432,2.432,0,0,1,.406-.64,2.418,2.418,0,0,1,2.987,1.718,2.409,2.409,0,0,1,.406,4.076" transform="translate(2.188 0.64)" fill="#010407"/>
        </g>
        <g id="Groupe_14" data-name="Groupe 14" transform="translate(18.3 43.646)">
          <path id="Tracé_74" data-name="Tracé 74" d="M.7.413a1.979,1.979,0,0,1-2.243,1.94A1.987,1.987,0,0,1-3.784.413V-2.229h.824V.322c0,.737.449,1.265,1.419,1.265S-.122,1.065-.122.322V-2.229H.7Z" transform="translate(3.784 2.229)" fill="#010407"/>
        </g>
        <g id="Groupe_15" data-name="Groupe 15" transform="translate(23.937 43.646)">
          <path id="Tracé_75" data-name="Tracé 75" d="M.439.347a.66.66,0,0,0,.695-.695.727.727,0,0,0-.742-.791H-1.543V.347ZM.392-1.873A1.468,1.468,0,0,1,1.978-.36,1.4,1.4,0,0,1,.392,1.083H-1.543v1.5h-.825V-1.873Z" transform="translate(2.368 1.873)" fill="#010407"/>
        </g>
      </g>
      <g id="Groupe_17" data-name="Groupe 17" transform="translate(28.904 43.567)">
        <path id="Tracé_77" data-name="Tracé 77" d="M0,0V4.454H4.2V3.717H.826V2.556H3.336V1.818H.826V.736H4.054V0Z" fill="#010407"/>
      </g>
      <g id="Groupe_21" data-name="Groupe 21" transform="translate(0 0)" clip-path="url(#clip-path)">
        <g id="Groupe_18" data-name="Groupe 18" transform="translate(36.062 43.539)">
          <path id="Tracé_78" data-name="Tracé 78" d="M.607.181a4.575,4.575,0,0,0-1.728-.4c-.794,0-1.191.172-1.191.479,0,.878,3.549.174,3.549,2.051,0,.778-.73,1.375-2.189,1.375a4.541,4.541,0,0,1-2.322-.6l.322-.7A3.969,3.969,0,0,0-.947,2.93c.864,0,1.328-.252,1.328-.624,0-.961-3.55-.245-3.55-2,0-.757.727-1.279,2.032-1.279A4.506,4.506,0,0,1,.934-.492Z" transform="translate(3.275 0.977)" fill="#010407"/>
        </g>
        <g id="Groupe_19" data-name="Groupe 19" transform="translate(41.268 43.509)">
          <path id="Tracé_79" data-name="Tracé 79" d="M.406.119a1.62,1.62,0,0,0-1.738,1.6,1.6,1.6,0,0,0,1.738,1.6,1.59,1.59,0,0,0,1.727-1.6A1.6,1.6,0,0,0,.406.119m0,3.957A2.424,2.424,0,0,1-2.188,1.718,2.434,2.434,0,0,1,.406-.64,2.419,2.419,0,0,1,2.989,1.718,2.41,2.41,0,0,1,.406,4.076" transform="translate(2.188 0.64)" fill="#010407"/>
        </g>
        <g id="Groupe_20" data-name="Groupe 20" transform="translate(47.21 43.509)">
          <path id="Tracé_80" data-name="Tracé 80" d="M.409.737A2.4,2.4,0,0,1-2.2-1.622,2.418,2.418,0,0,1,.409-3.973a3.314,3.314,0,0,1,2.071.664l-.439.652A2.565,2.565,0,0,0,.43-3.2a1.6,1.6,0,0,0-1.759,1.58A1.6,1.6,0,0,0,.443-.036,2.632,2.632,0,0,0,2.075-.57l.44.651A3.38,3.38,0,0,1,.409.737" transform="translate(2.204 3.973)" fill="#010407"/>
        </g>
      </g>
      <path id="Tracé_82" data-name="Tracé 82" d="M44.548.585h.826V-3.866h-.826Z" transform="translate(8.259 47.512)" fill="#010407"/>
      <g id="Groupe_22" data-name="Groupe 22" transform="translate(54.807 43.646)">
        <path id="Tracé_83" data-name="Tracé 83" d="M0,0V4.451H4.2V3.715H.825V2.551H3.335V1.815H.825V.734H4.053V0Z" fill="#010407"/>
      </g>
      <g id="Groupe_23" data-name="Groupe 23" transform="translate(59.373 43.646)">
        <path id="Tracé_84" data-name="Tracé 84" d="M0,0V.731H1.814v3.72H2.64V.731H4.451V0Z" fill="#010407"/>
      </g>
      <g id="Groupe_24" data-name="Groupe 24" transform="translate(64.494 43.646)">
        <path id="Tracé_85" data-name="Tracé 85" d="M0,0V4.451H4.2V3.715H.825V2.551H3.336V1.815H.825V.734H4.053V0Z" fill="#010407"/>
      </g>
      <g id="Groupe_26" data-name="Groupe 26" transform="translate(0 0)" clip-path="url(#clip-path)">
        <g id="Groupe_25" data-name="Groupe 25" transform="translate(71.208 43.509)">
          <path id="Tracé_86" data-name="Tracé 86" d="M.414.615A3.053,3.053,0,0,0,1.686.344V-.951h.8V.78a3.9,3.9,0,0,1-2.109.613A2.4,2.4,0,0,1-2.233-.965,2.416,2.416,0,0,1,.378-3.317a3.328,3.328,0,0,1,2.072.659l-.44.652A2.562,2.562,0,0,0,.4-2.533,1.578,1.578,0,0,0-1.361-.965,1.592,1.592,0,0,0,.414.615" transform="translate(2.233 3.317)" fill="#010407"/>
        </g>
      </g>
      <g id="Groupe_27" data-name="Groupe 27" transform="translate(77.041 43.646)">
        <path id="Tracé_88" data-name="Tracé 88" d="M0,0V4.451H4.2V3.715H.827V2.551H3.339V1.815H.827V.734H4.056V0Z" fill="#010407"/>
      </g>
      <g id="Groupe_29" data-name="Groupe 29" transform="translate(0 0)" clip-path="url(#clip-path)">
        <g id="Groupe_28" data-name="Groupe 28" transform="translate(82.126 43.646)">
          <path id="Tracé_89" data-name="Tracé 89" d="M.126.7H-.68V-3.755H.16L3.062-.4,3.08-.407c-.049-.843-.053-1.526-.053-2.186V-3.755h.808V.7H3L.111-2.659.1-2.65C.126-1.992.126-.841.126-.467Z" transform="translate(0.68 3.755)" fill="#010407"/>
        </g>
      </g>
      <g id="Groupe_30" data-name="Groupe 30" transform="translate(87.821 43.646)">
        <path id="Tracé_91" data-name="Tracé 91" d="M0,0V4.451H4.2V3.715H.826V2.551H3.34V1.815H.826V.734h3.23V0Z" fill="#010407"/>
      </g>
      <g id="Groupe_32" data-name="Groupe 32" transform="translate(0 0)" clip-path="url(#clip-path)">
        <g id="Groupe_31" data-name="Groupe 31" transform="translate(92.892 43.647)">
          <path id="Tracé_92" data-name="Tracé 92" d="M.433.324c.517,0,.807-.268.807-.653a.642.642,0,0,0-.717-.685H-1.513V.324Zm-.616.742h-1.33V2.7h-.825v-4.45H.524A1.394,1.394,0,0,1,2.061-.329,1.372,1.372,0,0,1,.786,1.042L2.107,2.7H1.074Z" transform="translate(2.338 1.747)" fill="#010407"/>
        </g>
      </g>
      <g id="Groupe_33" data-name="Groupe 33" transform="translate(97.614 43.646)">
        <path id="Tracé_94" data-name="Tracé 94" d="M.339,0-1.83,4.452h.895l.506-1.081H1.979l.51,1.081h.889L1.207,0Zm.44.844.856,1.805H-.083Z" transform="translate(1.83)" fill="#010407"/>
      </g>
      <g id="Groupe_34" data-name="Groupe 34" transform="translate(103.417 43.646)">
        <path id="Tracé_95" data-name="Tracé 95" d="M0,0V4.451H3.8V3.715H.821V0Z" fill="#010407"/>
      </g>
      <g id="Groupe_35" data-name="Groupe 35" transform="translate(107.86 43.646)">
        <path id="Tracé_96" data-name="Tracé 96" d="M0,0V4.451H4.2V3.715H.825V2.551H3.338V1.815H.825V.734h3.23V0Z" fill="#010407"/>
      </g>
      <g id="Groupe_39" data-name="Groupe 39" transform="translate(0 0)" clip-path="url(#clip-path)">
        <g id="Groupe_36" data-name="Groupe 36" transform="translate(38.029 7.426)">
          <path id="Tracé_97" data-name="Tracé 97" d="M1.947.579A14.722,14.722,0,0,0-3.6-.7C-6.145-.7-7.413-.154-7.413.83c0,2.818,11.376.551,11.376,6.562,0,2.491-2.344,4.413-7.025,4.413A14.53,14.53,0,0,1-10.5,9.883l1.031-2.25a12.7,12.7,0,0,0,6.43,1.756c2.774,0,4.256-.8,4.256-2,0-3.083-11.373-.787-11.373-6.411,0-2.434,2.323-4.1,6.505-4.1A14.28,14.28,0,0,1,2.989-1.563Z" transform="translate(10.5 3.122)" fill="#010407"/>
        </g>
        <g id="Groupe_37" data-name="Groupe 37" transform="translate(54.999 7.324)">
          <path id="Tracé_98" data-name="Tracé 98" d="M1.3.381C-2,.381-4.268,2.624-4.268,5.5c0,2.943,2.161,5.133,5.568,5.133,3.387,0,5.533-2.21,5.533-5.133C6.834,2.624,4.687.381,1.3.381m0,12.668c-4.544,0-8.313-3.028-8.313-7.55,0-4.464,3.77-7.556,8.313-7.556,4.567,0,8.275,3.092,8.275,7.556,0,4.522-3.708,7.55-8.275,7.55" transform="translate(7.013 2.056)" fill="#010407"/>
        </g>
        <g id="Groupe_38" data-name="Groupe 38" transform="translate(73.831 7.322)">
          <path id="Tracé_99" data-name="Tracé 99" d="M1.327,1.97A10.085,10.085,0,0,0,5.4,1.121V-3.034H7.954V2.507A12.459,12.459,0,0,1,1.211,4.459c-4.772,0-8.368-3.023-8.368-7.55,0-4.442,3.653-7.534,8.368-7.534A10.572,10.572,0,0,1,7.85-8.506l-1.4,2.091A8.185,8.185,0,0,0,1.285-8.1c-3.477-.082-5.65,2.161-5.65,5.013,0,2.947,2.187,5.06,5.691,5.06" transform="translate(7.157 10.625)" fill="#010407"/>
        </g>
      </g>
      <g id="Groupe_40" data-name="Groupe 40" transform="translate(91.95 7.763)">
        <path id="Tracé_101" data-name="Tracé 101" d="M0,2.232V-12.037H12.99v2.362H2.642v3.463h8.051v2.354H2.642V-.13h10.8V2.232Z" transform="translate(0 12.037)" fill="#010407"/>
      </g>
      <g id="Groupe_45" data-name="Groupe 45" transform="translate(0 0)" clip-path="url(#clip-path)">
        <g id="Groupe_41" data-name="Groupe 41" transform="translate(107.983 7.763)">
          <path id="Tracé_102" data-name="Tracé 102" d="M1.406,1.113A2.119,2.119,0,0,0,3.639-1.118,2.322,2.322,0,0,0,1.258-3.641h-6.2V1.113ZM1.258-6A4.709,4.709,0,0,1,6.336-1.15c0,2.929-1.958,4.625-5.078,4.625h-6.2V8.268H-7.584V-6Z" transform="translate(7.584 6.003)" fill="#010407"/>
        </g>
        <g id="Groupe_42" data-name="Groupe 42" transform="translate(124.064 7.764)">
          <path id="Tracé_103" data-name="Tracé 103" d="M1.389,1.039c1.649,0,2.578-.858,2.578-2.1A2.046,2.046,0,0,0,1.673-3.245H-4.851V1.039ZM-.592,3.409H-4.851V8.661H-7.493V-5.606H1.673c3.039,0,4.921,1.862,4.921,4.542A4.388,4.388,0,0,1,2.508,3.33L6.744,8.661h-3.3Z" transform="translate(7.493 5.606)" fill="#010407"/>
        </g>
        <g id="Groupe_43" data-name="Groupe 43" transform="translate(140.187 7.324)">
          <path id="Tracé_104" data-name="Tracé 104" d="M1.3.381C-2.006.381-4.277,2.624-4.277,5.5c0,2.943,2.174,5.133,5.577,5.133S6.836,8.423,6.836,5.5C6.836,2.624,4.69.381,1.3.381m0,12.668c-4.538,0-8.311-3.028-8.311-7.55,0-4.464,3.773-7.556,8.311-7.556,4.567,0,8.274,3.092,8.274,7.556,0,4.522-3.707,7.55-8.274,7.55" transform="translate(7.011 2.056)" fill="#010407"/>
        </g>
        <g id="Groupe_44" data-name="Groupe 44" transform="translate(159.36 7.763)">
          <path id="Tracé_105" data-name="Tracé 105" d="M2.237,2.232V-1c0-1.2.013-4.948.09-7.065l-.033-.012L-3.571-.543-9.484-8.078l-.04.012C-9.442-5.949-9.442-2.2-9.442-1V2.232h-2.626V-12.037h2.806L-3.551-4.5l5.788-7.533H4.878V2.232Z" transform="translate(12.068 12.037)" fill="#010407"/>
        </g>
      </g>
    </g>
    <g id="Groupe_73" data-name="Groupe 73" transform="translate(1052.623 912.412)">
      <g id="Groupe_72" data-name="Groupe 72" transform="translate(0 -25.417)" clip-path="url(#clip-path-8)">
        <g id="Groupe_47" data-name="Groupe 47" transform="translate(232.173 3.13)">
          <path id="Tracé_107" data-name="Tracé 107" d="M1.817,1.921H-9.5V1.309q0-5.356-.006-10.711c0-.649,0-.649.644-.649q4.879,0,9.758,0c.636,0,.555-.056.559.543,0,.391-.007.783,0,1.173.006.225-.063.317-.312.316-2.687-.01-5.374-.006-8.062-.007h-.308v.886c0,.551.017,1.1,0,1.656-.011.267.094.313.331.312,2-.007,4,0,6,0,.407,0,.406,0,.4.418s-.019.864,0,1.292c.017.279-.087.335-.345.334-2.02-.008-4.04,0-6.06-.012-.291,0-.354.086-.347.359.024.812.025,1.625.017,2.437,0,.225.058.291.287.291q3-.007,6,.008c.918,0,1.838.029,2.756.044Z" transform="translate(9.51 10.053)" fill="#2b2e34"/>
        </g>
        <g id="Groupe_48" data-name="Groupe 48" transform="translate(91.536 22.517)">
          <path id="Tracé_108" data-name="Tracé 108" d="M.43,1.129.982.969A3.1,3.1,0,0,1-.6.675a2.76,2.76,0,0,1-1.33-1.5,4.339,4.339,0,0,1,.125-3.533A2.674,2.674,0,0,1,.968-5.9,2.493,2.493,0,0,1,3.3-4.057a10.582,10.582,0,0,1,.27,1.832C3.6-2,3.441-2,3.279-2Q1.474-2-.329-2H-.648A1.674,1.674,0,0,0,.5-.26,2.759,2.759,0,0,0,2.721-.485c.061-.032.124-.06.219-.1.137.3.285.586.386.884.023.069-.094.249-.181.279-.455.152-.92.273-1.382.4A1.664,1.664,0,0,1,1.578,1c.052.051.088.088.125.125ZM2-3.156a1.48,1.48,0,0,0-.729-1.457,1.265,1.265,0,0,0-1.392.147,1.725,1.725,0,0,0-.6,1.31Z" transform="translate(2.249 5.907)" fill="#2b2e34"/>
        </g>
        <g id="Groupe_49" data-name="Groupe 49" transform="translate(52.895 22.525)">
          <path id="Tracé_109" data-name="Tracé 109" d="M.247,1.128l.26-.106C.1.932-.292.87-.67.758-1.407.539-1.4.527-1.114-.181c.064-.155.127-.31.179-.434A10.4,10.4,0,0,0,.373-.191,3.477,3.477,0,0,0,1.449-.206a.757.757,0,0,0,.688-.631.706.706,0,0,0-.476-.76c-.449-.2-.9-.394-1.354-.594a1.933,1.933,0,0,1-1.29-1.47,1.807,1.807,0,0,1,.9-1.882A3.825,3.825,0,0,1,2.4-5.825a3.413,3.413,0,0,1,.705.167.357.357,0,0,1,.211.238c.024.347.01.7.01,1.067a9.128,9.128,0,0,0-1.211-.318,5.053,5.053,0,0,0-1.168.025.517.517,0,0,0-.453.465.591.591,0,0,0,.269.655c.33.188.687.331,1.029.5a7.133,7.133,0,0,1,1.092.569A1.847,1.847,0,0,1,2.67.646a7.7,7.7,0,0,1-1.21.419l.061.062Z" transform="translate(1.295 5.901)" fill="#2b2e34"/>
        </g>
        <g id="Groupe_50" data-name="Groupe 50" transform="translate(98.248 22.515)">
          <path id="Tracé_110" data-name="Tracé 110" d="M.248,1.129l.247-.1C.089.935-.313.868-.7.748-1.4.526-1.4.513-1.128-.145-1.06-.31-.992-.474-.94-.6A11.479,11.479,0,0,0,.422-.179,3.268,3.268,0,0,0,1.47-.209a.746.746,0,0,0,.655-.625.679.679,0,0,0-.445-.744c-.3-.149-.6-.274-.9-.414-.318-.15-.643-.288-.948-.462A1.619,1.619,0,0,1-1-4.076,1.716,1.716,0,0,1,.071-5.624a4.482,4.482,0,0,1,3.08-.019.269.269,0,0,1,.16.183c.015.366.007.731.007,1.123a5.458,5.458,0,0,0-.928-.275,8.258,8.258,0,0,0-1.4-.038.523.523,0,0,0-.506.481.634.634,0,0,0,.342.707c.4.2.806.363,1.21.546.183.083.369.161.544.26A1.853,1.853,0,0,1,3.571-.535,2.019,2.019,0,0,1,1.856.955c-.145.02-.291.036-.461.056l.126.118Z" transform="translate(1.297 5.909)" fill="#2b2e34"/>
        </g>
        <g id="Groupe_51" data-name="Groupe 51" transform="translate(85.326 22.497)">
          <path id="Tracé_111" data-name="Tracé 111" d="M.434,1.132.895.993C.829.984.8.979.772.978A2.844,2.844,0,0,1-2.114-1.294,3.542,3.542,0,0,1-.972-5.161,3.576,3.576,0,0,1,2.773-5.6a.3.3,0,0,1,.173.213c.019.366.008.734.008,1.14-.1-.048-.174-.074-.238-.112A2.656,2.656,0,0,0,.806-4.611,1.831,1.831,0,0,0-.642-3.118a2.79,2.79,0,0,0,.11,1.8A1.734,1.734,0,0,0,1.038-.181,2.913,2.913,0,0,0,2.844-.618c.135.32.273.606.364.906.021.071-.093.229-.183.28a3.126,3.126,0,0,1-1.583.447l.325.117Z" transform="translate(2.27 5.924)" fill="#2b2e34"/>
        </g>
        <g id="Groupe_52" data-name="Groupe 52" transform="translate(191.972 3.127)">
          <path id="Tracé_112" data-name="Tracé 112" d="M0,0H1.011C3.071,0,5.132-.017,7.192.012A8.593,8.593,0,0,1,9.168.243a3.518,3.518,0,0,1,2.73,3.53A3.546,3.546,0,0,1,9.41,7.28c-.291.1-.59.179-.921.279l3.541,4.414c-.76,0-1.444-.031-2.124.011a1.139,1.139,0,0,1-1.1-.534c-.921-1.255-1.889-2.477-2.845-3.707a.414.414,0,0,0-.266-.164c-1.128-.011-2.257-.007-3.416-.007v4.4c-.723,0-1.417,0-2.111,0-.206,0-.185-.144-.185-.273,0-.511,0-1.023,0-1.534q0-4.9,0-9.809C-.02.251-.005.143,0,0M2.281,5.513a.476.476,0,0,0,.113.033c1.838,0,3.677.006,5.515-.012A1.7,1.7,0,0,0,9.662,4,1.693,1.693,0,0,0,8.151,2.053a3.445,3.445,0,0,0-.544-.026q-2.56,0-5.12,0c-.067,0-.132.014-.2.021Z" transform="translate(0.021 0.005)" fill="#2b2e34"/>
        </g>
        <g id="Groupe_53" data-name="Groupe 53" transform="translate(163.035 3.128)">
          <path id="Tracé_113" data-name="Tracé 113" d="M1.961,1.921c-.736,0-1.45.011-2.163-.011-.114,0-.244-.131-.332-.231Q-2.331-.378-4.12-2.442q-1.949-2.242-3.9-4.484c-.019-.021-.044-.037-.094-.08,0,.487,0,.947,0,1.408.027,2.387.052,4.773.093,7.16,0,.293-.075.381-.369.37-.6-.02-1.207-.006-1.852-.006V1.361q-.007-5.569-.019-11.135c0-.214.07-.281.28-.276.546.012,1.092.018,1.637,0a.7.7,0,0,1,.6.276q2.41,2.784,4.827,5.561Q-1.636-2.73-.35-1.249c.051.06.107.113.174.182-.032-3-.063-5.979-.1-8.965H1.961Z" transform="translate(10.265 10.051)" fill="#2b2e34"/>
        </g>
        <g id="Groupe_54" data-name="Groupe 54" transform="translate(89.06 3.129)">
          <path id="Tracé_114" data-name="Tracé 114" d="M1.449,1.11H1.056c-2.011,0-4.022,0-6.033-.006-.276,0-.336.086-.329.343q.032,1.218.015,2.438c0,.242.066.3.3.3,2.819,0,5.639.01,8.458,0,.3,0,.349.091.326.362-.032.389-.011.781-.013,1.173v.426H-7.567V5.578Q-7.574.025-7.585-5.528c0-.206.057-.282.274-.281q5.258.005,10.518,0c.068,0,.137.015.237.026,0,.619.008,1.228-.013,1.834,0,.061-.179.166-.276.166-1.646.011-3.293.007-4.941.007H-5.262a2.013,2.013,0,0,0-.03.237c0,.773.013,1.545,0,2.318-.006.257.1.3.319.3,2.021-.006,4.041,0,6.063,0,.416,0,.416,0,.413.409C1.5-.01,1.5.5,1.492,1.013c0,.018-.015.036-.043.1" transform="translate(7.585 5.809)" fill="#2b2e34"/>
        </g>
        <g id="Groupe_55" data-name="Groupe 55" transform="translate(149.527 3.128)">
          <path id="Tracé_115" data-name="Tracé 115" d="M.005,0H.576l9.973,0c.387,0,.387,0,.385.4,0,.441-.013.883,0,1.323.008.254-.082.32-.335.319-2.718-.01-5.436-.007-8.154-.007-.049,0-.1.007-.163.012V4.87c.121.006.238.017.355.015,2,0,4,0,6-.013.287,0,.362.086.351.362-.023.54-.007,1.081-.007,1.666H2.28v3.121h1.2q3.8-.011,7.609-.025c.2,0,.27.063.268.258-.008.5.006,1-.012,1.5,0,.074-.124.158-.208.208-.052.031-.138.006-.208.006H.378c-.4,0-.4,0-.4-.386q0-5.612,0-11.225C-.026.246-.007.129.005,0" transform="translate(0.027 0.003)" fill="#2b2e34"/>
        </g>
        <g id="Groupe_56" data-name="Groupe 56" transform="translate(178.315 3.128)">
          <path id="Tracé_116" data-name="Tracé 116" d="M1.824,1.919H-9.529V1.4q-.007-5.583-.019-11.166c0-.218.077-.273.283-.273q5.213.005,10.429,0c.194,0,.272.056.267.256q-.018.736-.006,1.475c0,.231-.077.31-.319.308q-4.048-.014-8.1-.008c-.069,0-.139.006-.249.011-.006.108-.015.213-.015.319,0,.742.013,1.485,0,2.227-.006.255.093.3.317.3,2.021-.007,4.041,0,6.063-.011.28,0,.375.071.363.35a12.928,12.928,0,0,0,0,1.324c.015.286-.062.379-.363.378-1.981-.013-3.962-.007-5.942-.007-.447,0-.442,0-.438.432.007.783.021,1.565.007,2.348,0,.25.079.3.311.3,2.819,0,5.639.01,8.458,0,.267,0,.348.061.324.337-.035.4-.013.8-.015,1.2v.418" transform="translate(9.548 10.042)" fill="#2b2e34"/>
        </g>
        <g id="Groupe_57" data-name="Groupe 57" transform="translate(52.399 2.807)">
          <path id="Tracé_117" data-name="Tracé 117" d="M1.122,2.028A7.429,7.429,0,0,1-4.051.057a6.1,6.1,0,0,1,.723-9.3,7.9,7.9,0,0,1,9.262.267A6.113,6.113,0,0,1,4.991,1.029a8.024,8.024,0,0,1-3.869,1M5.763-4.4A3.718,3.718,0,0,0,4.333-7.472a5.027,5.027,0,0,0-5.5-.574A3.865,3.865,0,0,0-3.529-4.561,3.942,3.942,0,0,0-1.567-.722a5.365,5.365,0,0,0,3.831.594A4.134,4.134,0,0,0,5.763-4.4" transform="translate(5.872 10.614)" fill="#2b2e34"/>
        </g>
        <g id="Groupe_58" data-name="Groupe 58" transform="translate(115.398 3.132)">
          <path id="Tracé_118" data-name="Tracé 118" d="M0,1.914Q0,.588,0-.733L-.009-9.189c0-.05,0-.1,0-.15-.007-.68-.007-.678.7-.678q4.7,0,9.4,0h.854c0,.653,0,1.27-.008,1.887,0,.048-.114.127-.181.132-.222.018-.444.011-.667.011H2.251v2.844H8.985v2.03H2.231c0,.25,0,.467,0,.685,0,.7.023,1.4.008,2.106,0,.245.069.3.306.3,2.8-.006,5.6,0,8.4-.007.279,0,.375.069.362.35-.02.461-.011.923,0,1.384,0,.182-.062.248-.245.248Q5.583,1.951.113,1.951A.606.606,0,0,1,0,1.914" transform="translate(0.011 10.017)" fill="#2b2e34"/>
        </g>
        <g id="Groupe_59" data-name="Groupe 59" transform="translate(38.339 2.88)">
          <path id="Tracé_119" data-name="Tracé 119" d="M1.81.214c-.241.5-.482.972-.7,1.455C1,1.928.889,2,.6,1.882A11.156,11.156,0,0,0-4.235.938a11.694,11.694,0,0,0-1.672.244,1.675,1.675,0,0,0-.641.32A.791.791,0,0,0-6.482,2.91a6.33,6.33,0,0,0,1.59.541c1.292.273,2.6.474,3.892.74a6.3,6.3,0,0,1,2.276.941,3.047,3.047,0,0,1,.292,4.854,6.011,6.011,0,0,1-3.359,1.3A12.768,12.768,0,0,1-9.349,9.893a.3.3,0,0,1-.117-.266c.247-.579.515-1.148.786-1.743.392.188.749.367,1.114.531a10.017,10.017,0,0,0,6.03.749A3.585,3.585,0,0,0-.192,8.594,1.019,1.019,0,0,0-.314,6.778,6.294,6.294,0,0,0-2.361,6.17a29.2,29.2,0,0,1-4.347-.905A4.14,4.14,0,0,1-8.661,4.054,2.8,2.8,0,0,1-8.5.389a4.639,4.639,0,0,1,2.611-1.3A12.132,12.132,0,0,1,1.52.049c.073.035.142.077.212.118.026.014.052.031.077.046" transform="translate(9.472 1.118)" fill="#2b2e34"/>
        </g>
        <g id="Groupe_60" data-name="Groupe 60" transform="translate(133.893 2.776)">
          <path id="Tracé_120" data-name="Tracé 120" d="M2.028.291C1.639.868,1.249,1.445.894,1.973a16.953,16.953,0,0,0-1.931-.94,6.4,6.4,0,0,0-4.789.036,3.839,3.839,0,0,0-2.393,3.6A4.079,4.079,0,0,0-4.51,8.935,8.29,8.29,0,0,0-.347,8.441a.382.382,0,0,0,.285-.425c-.015-.953-.01-1.906-.008-2.859,0-.1.02-.194.032-.307.68,0,1.335,0,1.991,0,.156,0,.208.062.208.217-.008,1.394,0,2.788-.02,4.182a.492.492,0,0,1-.193.368,9.866,9.866,0,0,1-8.689.886,5.747,5.747,0,0,1-3.707-4.288A6.03,6.03,0,0,1-6.3-1.032,8.994,8.994,0,0,1,1.642,0c.111.07.218.144.328.218a.828.828,0,0,1,.058.075" transform="translate(10.612 1.525)" fill="#2b2e34"/>
        </g>
        <g id="Groupe_61" data-name="Groupe 61" transform="translate(204.781 3.119)">
          <path id="Tracé_121" data-name="Tracé 121" d="M2.246,1.921H-.128C-.492,1.162-.889.44-1.188-.32A.909.909,0,0,0-2.231-.974c-1.818.043-3.638.019-5.456.011a.365.365,0,0,0-.394.233c-.36.784-.741,1.558-1.1,2.342a.487.487,0,0,1-.534.326c-.666-.021-1.332-.007-2.04-.007.04-.106.064-.187.1-.262q2.742-5.59,5.487-11.179a2.013,2.013,0,0,0,.121-.275.344.344,0,0,1,.386-.258c.586.008,1.173.013,1.758-.01a.464.464,0,0,1,.5.318Q-1.583-5.97.253-2.213C.891-.906,1.537.4,2.178,1.7a1.574,1.574,0,0,1,.068.222M-2.442-2.93-4.729-7.711-7.02-2.93Z" transform="translate(11.755 10.055)" fill="#2b2e34"/>
        </g>
        <g id="Groupe_62" data-name="Groupe 62" transform="translate(68.449 2.789)">
          <path id="Tracé_122" data-name="Tracé 122" d="M1.83.566a6.751,6.751,0,0,0-4.017-1.4,6.558,6.558,0,0,0-2.181.269A4.114,4.114,0,0,0-7.207,3.659a4.049,4.049,0,0,0,3.292,3.75A7.067,7.067,0,0,0,1.74,6.31c.066-.045.136-.081.239-.143.392.579.777,1.147,1.18,1.741-.147.1-.269.2-.4.288a9.545,9.545,0,0,1-6.279,1.41,6.881,6.881,0,0,1-4.325-1.94,5.9,5.9,0,0,1-1.7-4.924A6.063,6.063,0,0,1-5.031-2.569a9.022,9.022,0,0,1,7.9,1.276.3.3,0,0,1,.091.274c-.318.5-.655.987-.991,1.476a.553.553,0,0,1-.141.11" transform="translate(9.575 2.963)" fill="#2b2e34"/>
        </g>
        <g id="Groupe_63" data-name="Groupe 63" transform="translate(101.633 3.125)">
          <path id="Tracé_123" data-name="Tracé 123" d="M1.142.327V.913c0,3.018,0,6.036.008,9.055,0,.244-.075.311-.311.307-.653-.013-1.307,0-1.983,0V.341H-5.979V-1.677c.133-.008.27-.025.407-.025Q.063-1.705,5.7-1.71c.241,0,.319.068.311.306C5.993-.923,6-.442,6,.04c0,.218-.077.293-.3.292-1.4-.01-2.809,0-4.212,0Z" transform="translate(5.979 1.71)" fill="#2b2e34"/>
        </g>
        <g id="Groupe_64" data-name="Groupe 64" transform="translate(220.42 3.128)">
          <path id="Tracé_124" data-name="Tracé 124" d="M1.645,1.92H-8.569c-.008-.135-.024-.269-.024-.4q-.011-5.4-.018-10.8c0-.762,0-.762.763-.761.414,0,.829.008,1.242,0,.206-.006.279.052.278.27-.014,3.149-.017,6.3-.035,9.445,0,.269.112.287.323.287,2.464,0,4.929.006,7.393,0,.256,0,.33.061.308.322-.032.4-.014.8-.017,1.2,0,.138,0,.276,0,.442" transform="translate(8.611 10.048)" fill="#2b2e34"/>
        </g>
        <g id="Groupe_65" data-name="Groupe 65" transform="translate(38.263 19.961)">
          <path id="Tracé_125" data-name="Tracé 125" d="M1.343,1.5c-.5,0-.978.013-1.454-.012-.088,0-.2-.158-.243-.266C-.609.593-.854-.042-1.086-.683a.272.272,0,0,0-.3-.216c-.959.014-1.918.026-2.876.026a.358.358,0,0,0-.4.272c-.22.611-.472,1.213-.694,1.824a.4.4,0,0,1-.47.31c-.379-.026-.761-.006-1.2-.006.142-.38.257-.7.378-1.011q1.562-4.065,3.124-8.13a.447.447,0,0,1,.064-.133,1.109,1.109,0,0,1,1.222.2c.424,1.06.841,2.122,1.263,3.184Q.156-1.523,1.294,1.321c.018.045.026.094.049.18M-1.645-2.134c-.407-1.153-.805-2.282-1.22-3.46L-4.12-2.134Z" transform="translate(7.029 7.857)" fill="#2b2e34"/>
        </g>
        <g id="Groupe_66" data-name="Groupe 66" transform="translate(83.555 3.154)">
          <path id="Tracé_126" data-name="Tracé 126" d="M0,0H2.25V11.95c-.7,0-1.4,0-2.092,0-.206,0-.182-.147-.182-.273,0-.512,0-1.023,0-1.534q0-4.9,0-9.8C-.024.224,0,.107,0,0" transform="translate(0.025)" fill="#2b2e34"/>
        </g>
        <g id="Groupe_67" data-name="Groupe 67" transform="translate(71.07 22.515)">
          <path id="Tracé_127" data-name="Tracé 127" d="M.146.263C.038.053-.053-.125-.145-.3-.369-.738-.37-.743.092-.943A4.817,4.817,0,0,1,3.111-1.26,1.9,1.9,0,0,1,4.733.589c.046.487.058.98.062,1.471.01,1.11,0,2.22,0,3.4-.334,0-.7.012-1.071-.011-.07,0-.147-.139-.194-.227a3.39,3.39,0,0,1-.151-.376c-.276.166-.531.343-.808.478a2.585,2.585,0,0,1-2.145.055A1.9,1.9,0,0,1-.762,3.48,1.838,1.838,0,0,1,.428,1.651,5.674,5.674,0,0,1,1.8,1.339a9.1,9.1,0,0,1,1.21-.05c.187,0,.248-.068.247-.249A1.119,1.119,0,0,0,2.029-.2,3.713,3.713,0,0,0,.146.263M3.223,2.318a6.149,6.149,0,0,0-.815.006,5.684,5.684,0,0,0-1.171.245c-.418.154-.5.541-.468.95a.89.89,0,0,0,.623.809,1.831,1.831,0,0,0,1.756-.46.278.278,0,0,0,.071-.16c.006-.457,0-.916,0-1.391" transform="translate(0.762 1.374)" fill="#2b2e34"/>
        </g>
        <g id="Groupe_68" data-name="Groupe 68" transform="translate(78.21 22.518)">
          <path id="Tracé_128" data-name="Tracé 128" d="M.23.142C.422.021.572-.07.719-.166A3.171,3.171,0,0,1,2.87-.719,1.836,1.836,0,0,1,4.54.855a3.912,3.912,0,0,1,.062.687c0,1.4,0,2.809.01,4.212,0,.28-.1.348-.353.33a5.85,5.85,0,0,0-.817-.012c-.258.019-.33-.079-.328-.323q.014-1.8,0-3.61a3.477,3.477,0,0,0-.08-.833.975.975,0,0,0-1.2-.743,2.911,2.911,0,0,0-1.375.654.6.6,0,0,0-.156.42Q.291,3.7.3,5.759c0,.275-.092.35-.35.33a6.278,6.278,0,0,0-.847-.013c-.231.012-.308-.088-.3-.3,0-.1,0-.2,0-.3,0-1.9,0-3.81-.01-5.715,0-.243.062-.351.324-.328a4.437,4.437,0,0,0,.666,0C0-.575.139-.528.136-.274A2.045,2.045,0,0,0,.23.142" transform="translate(1.203 0.742)" fill="#2b2e34"/>
        </g>
        <g id="Groupe_69" data-name="Groupe 69" transform="translate(59.046 22.689)">
          <path id="Tracé_129" data-name="Tracé 129" d="M.914,1.069c-.311,0-.672.012-1.03-.01-.077,0-.174-.116-.217-.2A3.5,3.5,0,0,1-.5.38L-1,.722a2.757,2.757,0,0,1-2.41.318,1.882,1.882,0,0,1-1.3-1.821C-4.78-1.517-4.762-2.261-4.771-3c-.01-.762,0-1.525-.014-2.286,0-.242.075-.319.313-.3a8.26,8.26,0,0,0,.909,0c.23-.011.289.081.288.3-.008,1.222,0,2.445,0,3.669a2.8,2.8,0,0,0,.045.478A1.086,1.086,0,0,0-1.72-.148,3.255,3.255,0,0,0-.781-.6a.622.622,0,0,0,.206-.461Q-.562-3.14-.6-5.215c-.006-.287.052-.4.359-.372a5.026,5.026,0,0,0,.847,0c.241-.018.312.056.31.3-.011,1.384,0,2.767,0,4.151Z" transform="translate(4.785 5.594)" fill="#2b2e34"/>
        </g>
        <g id="Groupe_70" data-name="Groupe 70" transform="translate(47.153 22.515)">
          <path id="Tracé_130" data-name="Tracé 130" d="M.062.85a8.1,8.1,0,0,0,1.311.425,3.94,3.94,0,0,0,1.19-.069c.341-.054.484-.328.535-.65A.6.6,0,0,0,2.752-.06a6.085,6.085,0,0,0-.725-.367C1.68-.588,1.319-.72.982-.9A1.69,1.69,0,0,1,0-2.617a1.751,1.751,0,0,1,1.153-1.59,4.3,4.3,0,0,1,2.532-.1c.6.114.6.131.6.734v.661a10.412,10.412,0,0,0-1.235-.3,4.2,4.2,0,0,0-1.107.033.589.589,0,0,0-.516.524.593.593,0,0,0,.326.6c.32.185.671.319,1,.488a6.443,6.443,0,0,1,1.184.647,1.853,1.853,0,0,1-.386,3.091,3.694,3.694,0,0,1-2.22.258,9.184,9.184,0,0,1-1.446-.4c-.214-.067-.262-.218-.16-.428.124-.251.226-.512.332-.755" transform="translate(0.322 4.448)" fill="#2b2e34"/>
        </g>
        <g id="Groupe_71" data-name="Groupe 71" transform="translate(66.464 22.505)">
          <path id="Tracé_131" data-name="Tracé 131" d="M0,.033c.393,0,.784-.01,1.172.01.066,0,.148.119.183.2a2.8,2.8,0,0,1,.11.429c.126-.1.23-.18.331-.266A2.2,2.2,0,0,1,3.825-.1c.341.082.369.168.235.484-.1.239-.207.478-.3.721-.061.157-.148.226-.322.162A1.615,1.615,0,0,0,1.7,1.738a.672.672,0,0,0-.158.453c-.008,1.375-.011,2.748.01,4.122,0,.31-.1.373-.387.354C.785,6.641.4,6.66,0,6.66Z" transform="translate(0 0.171)" fill="#2b2e34"/>
        </g>
      </g>
      <path id="Tracé_133" data-name="Tracé 133" d="M0,4.857H30.609V-25.417H0Z" fill="#fff"/>
      <path id="Tracé_134" data-name="Tracé 134" d="M.778,1.507H29.512V-12.745H.778Z" transform="translate(0.149 2.421)"/>
      <path id="Tracé_135" data-name="Tracé 135" d="M.778-10.458H29.512V-24.712H.778Z" transform="translate(0.149 0.135)" fill="#e8051e"/>
      <path id="Tracé_136" data-name="Tracé 136" d="M5.017-11.7H23.672v-1.8H5.017Z" transform="translate(0.959 2.277)" fill="#fff"/>
    </g>
  </g>
</svg>
