<?xml version="1.0" encoding="utf-8"?>
<!-- Generator: Adobe Illustrator 27.5.0, SVG Export Plug-In . SVG Version: 6.00 Build 0)  -->
<svg version="1.1" id="Calque_1" xmlns="http://www.w3.org/2000/svg" xmlns:xlink="http://www.w3.org/1999/xlink" x="0px" y="0px"
	 viewBox="0 0 243.5 48.2" style="enable-background:new 0 0 243.5 48.2;" xml:space="preserve">
<style type="text/css">
	.st0{clip-path:url(#SVGID_00000109741310270310112070000011953863254776239516_);}
	.st1{fill:#2B2E34;}
	.st2{fill:#FFFFFF;}
	.st3{fill:#E8051E;}
</style>
<g id="Groupe_73" transform="translate(0 25.417)">
	<g>
		<defs>
			<rect id="SVGID_1_" y="-24.8" width="243.5" height="30.3"/>
		</defs>
		<clipPath id="SVGID_00000153701790489692708410000007810510674337979323_">
			<use xlink:href="#SVGID_1_"  style="overflow:visible;"/>
		</clipPath>
		
			<g id="Groupe_72" transform="translate(0 -25.417)" style="clip-path:url(#SVGID_00000153701790489692708410000007810510674337979323_);">
			<g id="Groupe_47" transform="translate(232.173 3.13)">
				<path id="Tracé_107" class="st1" d="M11.3,12.6H0V12C0,8.4,0,4.8,0,1.3c0-0.6,0-0.6,0.6-0.6c3.3,0,6.5,0,9.8,0
					C11,0.6,11,0.6,11,1.2c0,0.4,0,0.8,0,1.2c0,0.2-0.1,0.3-0.3,0.3c-2.7,0-5.4,0-8.1,0H2.3v0.9c0,0.6,0,1.1,0,1.7
					c0,0.3,0.1,0.3,0.3,0.3c2,0,4,0,6,0C9,5.5,9,5.5,9,5.9c0,0.4,0,0.9,0,1.3c0,0.3-0.1,0.3-0.3,0.3c-2,0-4,0-6.1,0
					c-0.3,0-0.4,0.1-0.3,0.4c0,0.8,0,1.6,0,2.4c0,0.2,0.1,0.3,0.3,0.3c2,0,4,0,6,0c0.9,0,1.8,0,2.8,0L11.3,12.6z"/>
			</g>
			<g id="Groupe_48" transform="translate(91.536 22.517)">
				<path id="Tracé_108" class="st1" d="M2.7,7.7l0.6-0.2c-0.5,0-1.1-0.1-1.6-0.3C1,6.9,0.6,6.3,0.3,5.7c-0.5-1.1-0.4-2.4,0.1-3.5
					c0.5-1.1,1.6-1.7,2.8-1.5c1.1,0,2,0.8,2.3,1.8c0.1,0.6,0.2,1.2,0.3,1.8c0,0.2-0.1,0.2-0.3,0.2c-1.2,0-2.4,0-3.6,0H1.6
					C1.5,5.3,2,6,2.7,6.3C3.5,6.5,4.3,6.4,5,6C5,6,5.1,6,5.2,5.9c0.1,0.3,0.3,0.6,0.4,0.9c0,0.1-0.1,0.2-0.2,0.3
					C4.9,7.3,4.5,7.4,4,7.5c-0.1,0-0.1,0-0.2,0C3.9,7.6,3.9,7.6,4,7.6L2.7,7.7z M4.2,3.4C4.3,2.8,4,2.2,3.5,1.9
					c-0.5-0.2-1-0.2-1.4,0.1C1.7,2.4,1.5,2.9,1.5,3.4L4.2,3.4z"/>
			</g>
			<g id="Groupe_49" transform="translate(52.895 22.525)">
				<path id="Tracé_109" class="st1" d="M1.5,7.6l0.3-0.1C1.4,7.4,1,7.4,0.6,7.3C-0.1,7.1-0.1,7,0.2,6.3C0.2,6.2,0.3,6,0.4,5.9
					c0.4,0.2,0.9,0.3,1.3,0.4c0.4,0.1,0.7,0,1.1,0c0.3,0,0.6-0.3,0.7-0.6C3.5,5.3,3.3,5,3,4.9C2.5,4.7,2.1,4.5,1.6,4.3
					C0.9,4.1,0.4,3.5,0.3,2.9C0.2,2.1,0.5,1.3,1.2,1C2,0.6,2.9,0.5,3.7,0.7c0.2,0,0.5,0.1,0.7,0.2c0.1,0,0.2,0.1,0.2,0.2
					c0,0.3,0,0.7,0,1.1C4.2,2,3.8,1.9,3.4,1.8c-0.4,0-0.8,0-1.2,0C2,1.9,1.8,2.1,1.8,2.3C1.7,2.6,1.8,2.9,2.1,3
					c0.3,0.2,0.7,0.3,1,0.5c0.4,0.2,0.7,0.3,1.1,0.6c0.8,0.6,1,1.8,0.4,2.6C4.4,6.9,4.2,7,4,7.2C3.6,7.3,3.2,7.5,2.8,7.6l0.1,0.1
					L1.5,7.6z"/>
			</g>
			<g id="Groupe_50" transform="translate(98.248 22.515)">
				<path id="Tracé_110" class="st1" d="M1.5,7.7l0.2-0.1C1.4,7.5,1,7.4,0.6,7.3C-0.1,7.1-0.1,7,0.2,6.4c0.1-0.2,0.1-0.3,0.2-0.5
					c0.4,0.2,0.9,0.3,1.4,0.4c0.3,0,0.7,0,1,0c0.3,0,0.6-0.3,0.7-0.6c0-0.3-0.1-0.6-0.4-0.7C2.7,4.8,2.4,4.7,2.1,4.5
					C1.8,4.4,1.4,4.2,1.1,4.1c-0.6-0.3-0.9-1-0.8-1.6c0-0.7,0.4-1.3,1.1-1.5c1-0.4,2.1-0.4,3.1,0c0.1,0,0.1,0.1,0.2,0.2
					c0,0.4,0,0.7,0,1.1C4.3,2.1,4,2,3.7,1.9c-0.5-0.1-0.9-0.1-1.4,0C2,1.9,1.8,2.1,1.8,2.4C1.7,2.6,1.9,2.9,2.1,3.1
					c0.4,0.2,0.8,0.4,1.2,0.5c0.2,0.1,0.4,0.2,0.5,0.3c0.8,0.4,1.2,1.3,1,2.1C4.7,6.8,4,7.4,3.2,7.5c-0.1,0-0.3,0-0.5,0.1l0.1,0.1
					H1.5z"/>
			</g>
			<g id="Groupe_51" transform="translate(85.326 22.497)">
				<path id="Tracé_111" class="st1" d="M2.7,7.7l0.5-0.1c-0.1,0-0.1,0-0.1,0c-1.4,0-2.6-0.9-2.9-2.3c-0.5-1.4,0-2.9,1.1-3.9
					c1.1-0.8,2.5-1,3.7-0.4c0.1,0,0.2,0.1,0.2,0.2c0,0.4,0,0.7,0,1.1C5.1,2.2,5.1,2.2,5,2.2C4.4,1.9,3.7,1.8,3.1,1.9
					C2.3,2.1,1.8,2.7,1.6,3.4C1.5,4,1.5,4.6,1.7,5.2C2,5.9,2.6,6.3,3.3,6.4c0.6,0.1,1.3-0.1,1.8-0.4c0.1,0.3,0.3,0.6,0.4,0.9
					c0,0.1-0.1,0.2-0.2,0.3c-0.5,0.3-1,0.4-1.6,0.4L4,7.7H2.7z"/>
			</g>
			<g id="Groupe_52" transform="translate(191.972 3.127)">
				<path id="Tracé_112" class="st1" d="M0,0.6h1c2.1,0,4.1,0,6.2,0c0.7,0,1.3,0.1,2,0.2c1.6,0.4,2.8,1.9,2.7,3.5
					c0.1,1.6-1,3-2.5,3.5C9.1,8,8.8,8.1,8.5,8.2l3.5,4.4c-0.8,0-1.4,0-2.1,0c-0.4,0.1-0.9-0.2-1.1-0.5C7.9,10.8,6.9,9.6,6,8.4
					C5.9,8.3,5.8,8.2,5.7,8.2c-1.1,0-2.3,0-3.4,0v4.4c-0.7,0-1.4,0-2.1,0C0,12.6,0,12.4,0,12.3c0-0.5,0-1,0-1.5C0,7.5,0,4.2,0,1
					C0,0.9,0,0.8,0,0.6 M2.3,6.1c0,0,0.1,0,0.1,0c1.8,0,3.7,0,5.5,0c0.9,0,1.7-0.6,1.8-1.5c0.1-0.9-0.5-1.8-1.4-1.9c0,0-0.1,0-0.1,0
					c-0.2,0-0.4,0-0.5,0c-1.7,0-3.4,0-5.1,0c-0.1,0-0.1,0-0.2,0L2.3,6.1z"/>
			</g>
			<g id="Groupe_53" transform="translate(163.035 3.128)">
				<path id="Tracé_113" class="st1" d="M12.2,12.6c-0.7,0-1.4,0-2.2,0c-0.1,0-0.2-0.1-0.3-0.2C8.5,11,7.3,9.6,6.1,8.2
					c-1.3-1.5-2.6-3-3.9-4.5c0,0,0,0-0.1-0.1c0,0.5,0,0.9,0,1.4c0,2.4,0.1,4.8,0.1,7.2c0,0.3-0.1,0.4-0.4,0.4c-0.6,0-1.2,0-1.9,0V12
					C0,8.3,0,4.6,0,0.9c0-0.2,0.1-0.3,0.3-0.3c0.5,0,1.1,0,1.6,0c0.2,0,0.5,0.1,0.6,0.3c1.6,1.9,3.2,3.7,4.8,5.6c0.9,1,1.7,2,2.6,3
					C10,9.5,10,9.5,10.1,9.6c0-3-0.1-6-0.1-9h2.2V12.6z"/>
			</g>
			<g id="Groupe_54" transform="translate(89.06 3.129)">
				<path id="Tracé_114" class="st1" d="M9,7.5H8.6c-2,0-4,0-6,0c-0.3,0-0.3,0.1-0.3,0.3c0,0.8,0,1.6,0,2.4c0,0.2,0.1,0.3,0.3,0.3
					c2.8,0,5.6,0,8.5,0c0.3,0,0.3,0.1,0.3,0.4c0,0.4,0,0.8,0,1.2v0.4H0V12C0,8.3,0,4.6,0,0.9c0-0.2,0.1-0.3,0.3-0.3
					c3.5,0,7,0,10.5,0c0.1,0,0.1,0,0.2,0c0,0.6,0,1.2,0,1.8c0,0.1-0.2,0.2-0.3,0.2c-1.6,0-3.3,0-4.9,0H2.3c0,0.1,0,0.2,0,0.2
					c0,0.8,0,1.5,0,2.3c0,0.3,0.1,0.3,0.3,0.3c2,0,4,0,6.1,0c0.4,0,0.4,0,0.4,0.4C9.1,6.4,9.1,6.9,9,7.5C9.1,7.5,9.1,7.5,9,7.5"/>
			</g>
			<g id="Groupe_55" transform="translate(149.527 3.128)">
				<path id="Tracé_115" class="st1" d="M0,0.6h0.6h10C11,0.6,11,0.6,11,1c0,0.4,0,0.9,0,1.3c0,0.3-0.1,0.3-0.3,0.3
					c-2.7,0-5.4,0-8.2,0c0,0-0.1,0-0.2,0v2.8c0.1,0,0.2,0,0.4,0c2,0,4,0,6,0C9,5.5,9,5.6,9,5.9c0,0.5,0,1.1,0,1.7H2.3v3.1h1.2
					c2.5,0,5.1,0,7.6,0c0.2,0,0.3,0.1,0.3,0.3c0,0.5,0,1,0,1.5c0,0.1-0.1,0.2-0.2,0.2c-0.1,0-0.1,0-0.2,0H0.4c-0.4,0-0.4,0-0.4-0.4
					C0,8.5,0,4.7,0,1C0,0.9,0,0.7,0,0.6"/>
			</g>
			<g id="Groupe_56" transform="translate(178.315 3.128)">
				<path id="Tracé_116" class="st1" d="M11.4,12.6H0v-0.5C0,8.3,0,4.6,0,0.9c0-0.2,0.1-0.3,0.3-0.3c3.5,0,7,0,10.4,0
					c0.2,0,0.3,0.1,0.3,0.3c0,0.5,0,1,0,1.5c0,0.2-0.1,0.3-0.3,0.3c-2.7,0-5.4,0-8.1,0c-0.1,0-0.1,0-0.2,0c0,0.1,0,0.2,0,0.3
					c0,0.7,0,1.5,0,2.2c0,0.3,0.1,0.3,0.3,0.3c2,0,4,0,6.1,0C8.9,5.5,9,5.6,9,5.8c0,0.4,0,0.9,0,1.3C9,7.5,9,7.5,8.7,7.5
					c-2,0-4,0-5.9,0c-0.4,0-0.4,0-0.4,0.4c0,0.8,0,1.6,0,2.3c0,0.2,0.1,0.3,0.3,0.3c2.8,0,5.6,0,8.5,0c0.3,0,0.3,0.1,0.3,0.3
					c0,0.4,0,0.8,0,1.2L11.4,12.6"/>
			</g>
			<g id="Groupe_57" transform="translate(52.399 2.807)">
				<path id="Tracé_117" class="st1" d="M7,13.3c-1.9,0-3.8-0.7-5.2-2c-2.4-2.4-2.4-6.2-0.1-8.6C2,2.4,2.3,2.2,2.5,2
					c2.8-1.9,6.6-1.8,9.3,0.3c2.6,2.2,2.9,6,0.7,8.6c-0.5,0.6-1,1-1.7,1.4C9.7,12.9,8.3,13.3,7,13.3 M11.6,6.8
					c0-1.2-0.5-2.3-1.4-3.1C8.7,2.5,6.5,2.3,4.7,3.2c-1.4,0.6-2.3,2-2.4,3.5c-0.2,1.6,0.6,3.1,2,3.8c1.2,0.7,2.5,0.9,3.8,0.6
					C10.2,10.8,11.7,8.9,11.6,6.8"/>
			</g>
			<g id="Groupe_58" transform="translate(115.398 3.132)">
				<path id="Tracé_118" class="st1" d="M0,12.5c0-0.9,0-1.8,0-2.6l0-8.5c0-0.1,0-0.1,0-0.1c0-0.7,0-0.7,0.7-0.7c3.1,0,6.3,0,9.4,0
					H11c0,0.7,0,1.3,0,1.9c0,0-0.1,0.1-0.2,0.1c-0.2,0-0.4,0-0.7,0H2.3v2.8H9v2H2.2c0,0.2,0,0.5,0,0.7c0,0.7,0,1.4,0,2.1
					c0,0.2,0.1,0.3,0.3,0.3c2.8,0,5.6,0,8.4,0c0.3,0,0.4,0.1,0.4,0.3c0,0.5,0,0.9,0,1.4c0,0.2-0.1,0.2-0.2,0.2c-3.7,0-7.3,0-10.9,0
					C0.1,12.6,0,12.6,0,12.5"/>
			</g>
			<g id="Groupe_59" transform="translate(38.339 2.88)">
				<path id="Tracé_119" class="st1" d="M11.3,1.9c-0.2,0.5-0.5,1-0.7,1.5c-0.1,0.3-0.2,0.3-0.5,0.2c-1.5-0.7-3.2-1-4.8-0.9
					c-0.6,0-1.1,0.1-1.7,0.2C3.3,3,3.1,3.1,2.9,3.2C2.5,3.5,2.4,3.9,2.6,4.3C2.7,4.5,2.8,4.6,3,4.6c0.5,0.3,1,0.4,1.6,0.5
					c1.3,0.3,2.6,0.5,3.9,0.7c0.8,0.2,1.6,0.5,2.3,0.9c1.4,0.9,1.8,2.8,0.9,4.2c-0.2,0.2-0.3,0.4-0.6,0.6c-1,0.8-2.1,1.2-3.4,1.3
					c-2.6,0.3-5.2-0.2-7.6-1.4C0,11.6,0,11.5,0,11.4c0.2-0.6,0.5-1.1,0.8-1.7c0.4,0.2,0.7,0.4,1.1,0.5c1.9,0.9,4,1.1,6,0.7
					c0.5-0.1,0.9-0.3,1.3-0.6C9.8,10,9.9,9.4,9.6,8.9C9.5,8.7,9.4,8.6,9.2,8.5C8.5,8.2,7.8,8,7.1,7.9C5.6,7.7,4.2,7.4,2.8,7
					C2,6.8,1.3,6.4,0.8,5.8C-0.1,4.7,0,3.1,1,2.1C1.7,1.4,2.6,1,3.6,0.8c2.5-0.5,5.1-0.1,7.4,1C11.1,1.8,11.1,1.9,11.3,1.9
					C11.2,1.9,11.3,1.9,11.3,1.9"/>
			</g>
			<g id="Groupe_60" transform="translate(133.893 2.776)">
				<path id="Tracé_120" class="st1" d="M12.6,2.4c-0.4,0.6-0.8,1.2-1.1,1.7c-0.6-0.4-1.3-0.7-1.9-0.9C8,2.6,6.3,2.6,4.8,3.2
					c-1.5,0.6-2.4,2-2.4,3.6C2.3,9,3.9,10.9,6.1,11.1c1.4,0.2,2.8,0,4.2-0.5c0.2,0,0.3-0.2,0.3-0.4c0-1,0-1.9,0-2.9
					c0-0.1,0-0.2,0-0.3c0.7,0,1.3,0,2,0c0.2,0,0.2,0.1,0.2,0.2c0,1.4,0,2.8,0,4.2c0,0.1-0.1,0.3-0.2,0.4c-2.6,1.6-5.8,2-8.7,0.9
					C2,12,0.6,10.3,0.2,8.4c-0.8-3.1,1-6.3,4.1-7.2c2.7-0.9,5.6-0.5,7.9,1C12.4,2.2,12.5,2.3,12.6,2.4C12.6,2.4,12.6,2.4,12.6,2.4"
					/>
			</g>
			<g id="Groupe_61" transform="translate(204.781 3.119)">
				<path id="Tracé_121" class="st1" d="M14,12.6h-2.4c-0.4-0.8-0.8-1.5-1.1-2.2c-0.1-0.5-0.6-0.7-1-0.7c-1.8,0-3.6,0-5.5,0
					c-0.2,0-0.3,0.1-0.4,0.2c-0.4,0.8-0.7,1.6-1.1,2.3c-0.1,0.2-0.3,0.4-0.5,0.3c-0.7,0-1.3,0-2,0c0-0.1,0.1-0.2,0.1-0.3
					C1.9,8.6,3.8,4.9,5.6,1.2c0-0.1,0.1-0.2,0.1-0.3c0-0.2,0.2-0.3,0.4-0.3c0.6,0,1.2,0,1.8,0c0.2,0,0.4,0.1,0.5,0.3
					c1.2,2.5,2.4,5,3.7,7.5c0.6,1.3,1.3,2.6,1.9,3.9C14,12.4,14,12.5,14,12.6 M9.3,7.7L7,3L4.7,7.7H9.3z"/>
			</g>
			<g id="Groupe_62" transform="translate(68.449 2.789)">
				<path id="Tracé_122" class="st1" d="M11.4,4.1c-1.2-0.9-2.6-1.4-4-1.4C6.7,2.7,5.9,2.8,5.2,3c-1.8,0.6-3,2.3-2.8,4.2
					c0.1,1.9,1.5,3.4,3.3,3.8c2,0.5,4,0.1,5.7-1.1c0.1,0,0.1-0.1,0.2-0.1c0.4,0.6,0.8,1.1,1.2,1.7c-0.1,0.1-0.3,0.2-0.4,0.3
					c-1.9,1.2-4.1,1.7-6.3,1.4c-1.6-0.1-3.2-0.8-4.3-1.9C0.4,10-0.2,8.1,0,6.3c0.2-2.5,2-4.7,4.5-5.3c2.7-0.8,5.6-0.4,7.9,1.3
					c0.1,0.1,0.1,0.2,0.1,0.3c-0.3,0.5-0.7,1-1,1.5C11.5,4.1,11.5,4.1,11.4,4.1"/>
			</g>
			<g id="Groupe_63" transform="translate(101.633 3.125)">
				<path id="Tracé_123" class="st1" d="M7.1,2.7v0.6c0,3,0,6,0,9.1c0,0.2-0.1,0.3-0.3,0.3c-0.7,0-1.3,0-2,0V2.7H0v-2
					c0.1,0,0.3,0,0.4,0c3.8,0,7.5,0,11.3,0c0.2,0,0.3,0.1,0.3,0.3c0,0.5,0,1,0,1.4c0,0.2-0.1,0.3-0.3,0.3c-1.4,0-2.8,0-4.2,0
					L7.1,2.7z"/>
			</g>
			<g id="Groupe_64" transform="translate(220.42 3.128)">
				<path id="Tracé_124" class="st1" d="M10.3,12.6H0c0-0.1,0-0.3,0-0.4C0,8.6,0,5,0,1.4c0-0.8,0-0.8,0.8-0.8c0.4,0,0.8,0,1.2,0
					c0.2,0,0.3,0.1,0.3,0.3c0,3.1,0,6.3,0,9.4c0,0.3,0.1,0.3,0.3,0.3c2.5,0,4.9,0,7.4,0c0.3,0,0.3,0.1,0.3,0.3c0,0.4,0,0.8,0,1.2
					C10.3,12.3,10.3,12.4,10.3,12.6"/>
			</g>
			<g id="Groupe_65" transform="translate(38.263 19.961)">
				<path id="Tracé_125" class="st1" d="M8.4,10c-0.5,0-1,0-1.5,0c-0.1,0-0.2-0.2-0.2-0.3C6.4,9.1,6.2,8.4,5.9,7.8
					c0-0.1-0.2-0.2-0.3-0.2c-1,0-1.9,0-2.9,0c-0.2,0-0.4,0.1-0.4,0.3C2.1,8.5,1.9,9.1,1.7,9.7c0,0.2-0.3,0.4-0.5,0.3
					c-0.4,0-0.8,0-1.2,0c0.1-0.4,0.3-0.7,0.4-1c1-2.7,2.1-5.4,3.1-8.1c0,0,0-0.1,0.1-0.1C4,0.5,4.5,0.6,4.8,0.9C5.2,2,5.6,3,6.1,4.1
					C6.8,6,7.6,7.9,8.3,9.8C8.3,9.8,8.3,9.9,8.4,10 M5.4,6.3C5,5.2,4.6,4.1,4.2,2.9L2.9,6.3H5.4z"/>
			</g>
			<g id="Groupe_66" transform="translate(83.555 3.154)">
				<path id="Tracé_126" class="st1" d="M0,0.6h2.2v11.9c-0.7,0-1.4,0-2.1,0C0,12.6,0,12.4,0,12.3c0-0.5,0-1,0-1.5C0,7.5,0,4.2,0,1
					C0,0.8,0,0.7,0,0.6"/>
			</g>
			<g id="Groupe_67" transform="translate(71.07 22.515)">
				<path id="Tracé_127" class="st1" d="M0.9,2.3C0.8,2,0.7,1.9,0.6,1.7C0.4,1.3,0.4,1.2,0.9,1c0.9-0.4,2-0.5,3-0.3
					c0.9,0.1,1.6,0.9,1.6,1.8c0,0.5,0.1,1,0.1,1.5c0,1.1,0,2.2,0,3.4c-0.3,0-0.7,0-1.1,0c-0.1,0-0.1-0.1-0.2-0.2
					C4.2,7.1,4.2,7,4.1,6.8C3.9,7,3.6,7.2,3.3,7.3C2.7,7.6,1.9,7.7,1.2,7.4C0.4,7.1-0.1,6.3,0,5.5c0-0.8,0.4-1.5,1.2-1.8
					c0.4-0.2,0.9-0.3,1.4-0.3c0.4,0,0.8-0.1,1.2,0C4,3.3,4,3.2,4,3c0.1-0.6-0.4-1.2-1-1.2c-0.1,0-0.2,0-0.2,0
					C2.1,1.8,1.5,1.9,0.9,2.3 M4,4.3c-0.3,0-0.5,0-0.8,0C2.8,4.4,2.4,4.4,2,4.6c-0.4,0.2-0.5,0.5-0.5,1c0,0.4,0.3,0.7,0.6,0.8
					c0.6,0.2,1.3,0,1.8-0.5C4,5.8,4,5.8,4,5.7C4,5.2,4,4.8,4,4.3"/>
			</g>
			<g id="Groupe_68" transform="translate(78.21 22.518)">
				<path id="Tracé_128" class="st1" d="M1.4,1.5c0.2-0.1,0.3-0.2,0.5-0.3c0.6-0.4,1.4-0.6,2.2-0.6c0.9,0.1,1.6,0.7,1.7,1.6
					c0,0.2,0.1,0.5,0.1,0.7c0,1.4,0,2.8,0,4.2c0,0.3-0.1,0.3-0.4,0.3c-0.3,0-0.5,0-0.8,0c-0.3,0-0.3-0.1-0.3-0.3c0-1.2,0-2.4,0-3.6
					c0-0.3,0-0.6-0.1-0.8C4.1,2.1,3.6,1.8,3.1,1.9c0,0,0,0,0,0C2.5,2,2.1,2.2,1.7,2.6C1.6,2.7,1.5,2.8,1.5,3c0,1.4,0,2.7,0,4.1
					c0,0.3-0.1,0.3-0.4,0.3c-0.3,0-0.6,0-0.8,0C0.1,7.4,0,7.3,0,7.1C0,7,0,6.9,0,6.8C0,4.9,0,3,0,1.1c0-0.2,0.1-0.4,0.3-0.3
					c0.2,0,0.4,0,0.7,0c0.2,0,0.4,0,0.4,0.3C1.4,1.2,1.4,1.4,1.4,1.5"/>
			</g>
			<g id="Groupe_69" transform="translate(59.046 22.689)">
				<path id="Tracé_129" class="st1" d="M5.7,7.3c-0.3,0-0.7,0-1,0c-0.1,0-0.2-0.1-0.2-0.2C4.4,6.9,4.3,6.8,4.3,6.6L3.8,6.9
					C3.1,7.4,2.2,7.5,1.4,7.2C0.6,7,0.1,6.3,0.1,5.4C0,4.7,0,3.9,0,3.2c0-0.8,0-1.5,0-2.3c0-0.2,0.1-0.3,0.3-0.3c0.3,0,0.6,0,0.9,0
					c0.2,0,0.3,0.1,0.3,0.3c0,1.2,0,2.4,0,3.7c0,0.2,0,0.3,0,0.5c0,0.6,0.5,1.1,1.1,1.1c0.1,0,0.3,0,0.4-0.1C3.4,6,3.7,5.8,4,5.6
					c0.1-0.1,0.2-0.3,0.2-0.5c0-1.4,0-2.8,0-4.2c0-0.3,0.1-0.4,0.4-0.4c0.3,0,0.6,0,0.8,0c0.2,0,0.3,0.1,0.3,0.3c0,1.4,0,2.8,0,4.2
					L5.7,7.3z"/>
			</g>
			<g id="Groupe_70" transform="translate(47.153 22.515)">
				<path id="Tracé_130" class="st1" d="M0.4,5.9c0.4,0.2,0.9,0.3,1.3,0.4c0.4,0,0.8,0,1.2-0.1c0.3-0.1,0.5-0.3,0.5-0.7
					c0-0.3-0.1-0.5-0.3-0.6C2.8,4.9,2.6,4.7,2.3,4.6C2,4.5,1.6,4.3,1.3,4.2c-0.7-0.3-1.1-1-1-1.7c0-0.7,0.5-1.3,1.2-1.6
					C2.3,0.6,3.2,0.5,4,0.8c0.6,0.1,0.6,0.1,0.6,0.7v0.7C4.2,2,3.8,1.9,3.4,1.9c-0.4,0-0.7,0-1.1,0C2,1.9,1.8,2.1,1.7,2.4
					c0,0.2,0.1,0.5,0.3,0.6c0.3,0.2,0.7,0.3,1,0.5c0.4,0.2,0.8,0.4,1.2,0.6C5,4.8,5.1,6,4.5,6.8C4.3,7,4.1,7.1,3.9,7.2
					C3.2,7.5,2.4,7.6,1.7,7.5c-0.5-0.1-1-0.2-1.4-0.4C0,7-0.1,6.9,0,6.7C0.2,6.4,0.3,6.2,0.4,5.9"/>
			</g>
			<g id="Groupe_71" transform="translate(66.464 22.505)">
				<path id="Tracé_131" class="st1" d="M0,0.8c0.4,0,0.8,0,1.2,0c0.1,0,0.1,0.1,0.2,0.2c0,0.1,0.1,0.3,0.1,0.4
					c0.1-0.1,0.2-0.2,0.3-0.3c0.5-0.5,1.3-0.7,2-0.5c0.3,0.1,0.4,0.2,0.2,0.5C4,1.4,3.9,1.6,3.8,1.9C3.7,2,3.6,2.1,3.4,2.1
					C2.8,1.8,2.1,2,1.7,2.5C1.6,2.7,1.5,2.8,1.5,3c0,1.4,0,2.7,0,4.1c0,0.3-0.1,0.4-0.4,0.4c-0.4,0-0.8,0-1.2,0V0.8z"/>
			</g>
		</g>
	</g>
	<path id="Tracé_133" class="st2" d="M0,5.5h30.6v-30.3H0V5.5z"/>
	<path id="Tracé_134" d="M0.9,4.5h28.7V-9.7H0.9V4.5z"/>
	<path id="Tracé_135" class="st3" d="M0.9-9.7h28.7V-24H0.9V-9.7z"/>
	<path id="Tracé_136" class="st2" d="M6-8.8h18.7v-1.8H6V-8.8z"/>
</g>
</svg>
