<?xml version="1.0" encoding="utf-8"?>
<!-- Generator: Adobe Illustrator 27.5.0, SVG Export Plug-In . SVG Version: 6.00 Build 0)  -->
<svg version="1.1" id="Groupe_46" xmlns="http://www.w3.org/2000/svg" xmlns:xlink="http://www.w3.org/1999/xlink" x="0px" y="0px"
	 viewBox="0 0 243.5 48.2" style="enable-background:new 0 0 243.5 48.2;" xml:space="preserve">
<style type="text/css">
	.st0{fill:#FFFFFF;}
	.st1{fill:#FF3E44;}
	.st2{fill:#010407;}
	.st3{clip-path:url(#SVGID_00000134231108967341831020000003844420706919595416_);}
	.st4{clip-path:url(#SVGID_00000142874049873365804380000010823940615020254138_);}
	.st5{clip-path:url(#SVGID_00000166664319834221321650000009721348508175937179_);}
	.st6{clip-path:url(#SVGID_00000093871531455942844680000011908024269709704597_);}
	.st7{clip-path:url(#SVGID_00000124152232725426700910000014098752542306468264_);}
	.st8{clip-path:url(#SVGID_00000000914681192438834270000005996661596849345198_);}
	.st9{clip-path:url(#SVGID_00000098221534043652277250000014696391493927358636_);}
</style>
<path id="Tracé_67" class="st0" d="M0,30.1h30.5V0H0V30.1z"/>
<path id="Tracé_68" class="st1" d="M0.9,15.1h28.4V0.6H0.9V15.1z"/>
<path id="Tracé_69" class="st2" d="M0.9,29.1h28.4V14.8H0.9V29.1z"/>
<path id="Tracé_70" class="st0" d="M5.9,14h18.5v1.7H5.9V14z"/>
<g>
	<defs>
		<rect id="SVGID_1_" width="176.3" height="48.2"/>
	</defs>
	<clipPath id="SVGID_00000085225792175389379960000000493020555577812640_">
		<use xlink:href="#SVGID_1_"  style="overflow:visible;"/>
	</clipPath>
	
		<g id="Groupe_16" transform="translate(0 0)" style="clip-path:url(#SVGID_00000085225792175389379960000000493020555577812640_);">
		<g id="Groupe_11" transform="translate(1.239 43.509)">
			<path id="Tracé_71" class="st2" d="M2.6,3.9c0.4,0,0.9-0.1,1.3-0.3V2.4h0.8v1.7C4.1,4.5,3.4,4.7,2.6,4.7C1.3,4.8,0.1,3.8,0,2.5
				c0-0.1,0-0.1,0-0.2C0,1,1.1,0,2.5,0c0,0,0.1,0,0.1,0c0.7,0,1.5,0.2,2.1,0.7L4.2,1.3C3.8,1,3.2,0.8,2.6,0.8C1.8,0.7,1,1.3,0.9,2.2
				c0,0.1,0,0.1,0,0.2c0,0.9,0.7,1.6,1.6,1.6C2.5,3.9,2.6,3.9,2.6,3.9"/>
		</g>
		<g id="Groupe_12" transform="translate(7.072 43.647)">
			<path id="Tracé_72" class="st2" d="M2.8,2.1c0.5,0,0.8-0.3,0.8-0.7c0-0.4-0.2-0.7-0.6-0.7c0,0-0.1,0-0.1,0h-2v1.3H2.8z M2.2,2.8
				H0.8v1.6H0V0h2.9c0.8-0.1,1.4,0.5,1.5,1.2c0,0.1,0,0.1,0,0.2c0,0.7-0.6,1.3-1.3,1.4l1.3,1.7h-1L2.2,2.8z"/>
		</g>
		<g id="Groupe_13" transform="translate(12.172 43.509)">
			<path id="Tracé_73" class="st2" d="M2.6,0.8C1.7,0.7,0.9,1.4,0.9,2.3c0,0,0,0.1,0,0.1C0.9,3.2,1.6,4,2.4,4c0,0,0.1,0,0.1,0
				C3.5,4,4.2,3.4,4.3,2.5c0-0.1,0-0.1,0-0.2c0-0.9-0.7-1.6-1.6-1.6C2.7,0.8,2.6,0.8,2.6,0.8 M2.6,4.7C1.3,4.8,0.1,3.8,0,2.5
				c0,0,0-0.1,0-0.1C0,1,1.2,0,2.5,0c0,0,0.1,0,0.1,0c1.3-0.1,2.5,0.9,2.6,2.2c0,0,0,0.1,0,0.1c0,1.3-1.1,2.4-2.5,2.4
				C2.7,4.7,2.6,4.7,2.6,4.7"/>
		</g>
		<g id="Groupe_14" transform="translate(18.3 43.646)">
			<path id="Tracé_74" class="st2" d="M4.5,2.6c0,1.1-0.9,2-2,2c-0.1,0-0.2,0-0.2,0C1.2,4.7,0.2,4,0,2.9c0-0.1,0-0.1,0-0.2V0h0.8
				v2.6c0,0.7,0.4,1.3,1.4,1.3s1.4-0.5,1.4-1.3V0h0.8V2.6z"/>
		</g>
		<g id="Groupe_15" transform="translate(23.937 43.646)">
			<path id="Tracé_75" class="st2" d="M2.8,2.2c0.4,0,0.7-0.3,0.7-0.6c0,0,0,0,0-0.1c0-0.4-0.3-0.8-0.7-0.8c0,0-0.1,0-0.1,0H0.8
				v1.5H2.8z M2.8,0c0.8-0.1,1.5,0.5,1.6,1.3c0,0.1,0,0.1,0,0.2C4.4,2.3,3.8,2.9,3,3C2.9,3,2.8,3,2.8,3H0.8v1.5H0V0H2.8z"/>
		</g>
	</g>
</g>
<g id="Groupe_17" transform="translate(28.904 43.567)">
	<path id="Tracé_77" class="st2" d="M0,0v4.5h4.2V3.7H0.8V2.6h2.5V1.8H0.8V0.7h3.2V0H0z"/>
</g>
<g>
	<defs>
		<rect id="SVGID_00000111896150357405554170000011765374468276304287_" width="176.3" height="48.2"/>
	</defs>
	<clipPath id="SVGID_00000107578036219462798990000007167040516220706471_">
		<use xlink:href="#SVGID_00000111896150357405554170000011765374468276304287_"  style="overflow:visible;"/>
	</clipPath>
	
		<g id="Groupe_21" transform="translate(0 0)" style="clip-path:url(#SVGID_00000107578036219462798990000007167040516220706471_);">
		<g id="Groupe_18" transform="translate(36.062 43.539)">
			<path id="Tracé_78" class="st2" d="M3.9,1.2C3.3,0.9,2.8,0.8,2.2,0.8C1.4,0.8,1,0.9,1,1.2c0,0.9,3.5,0.2,3.5,2.1
				c0,0.8-0.7,1.4-2.2,1.4C1.5,4.7,0.7,4.5,0,4.1l0.3-0.7c0.6,0.4,1.3,0.5,2,0.5c0.9,0,1.3-0.3,1.3-0.6c0-1-3.6-0.2-3.6-2
				c0-0.8,0.7-1.3,2-1.3c0.7,0,1.4,0.2,2.1,0.5L3.9,1.2z"/>
		</g>
		<g id="Groupe_19" transform="translate(41.268 43.509)">
			<path id="Tracé_79" class="st2" d="M2.6,0.8C1.7,0.7,0.9,1.4,0.9,2.3c0,0,0,0.1,0,0.1C0.9,3.2,1.6,4,2.5,4c0,0,0.1,0,0.1,0
				C3.5,4,4.2,3.4,4.3,2.5c0-0.1,0-0.1,0-0.2c0-0.9-0.7-1.6-1.6-1.6C2.7,0.8,2.6,0.8,2.6,0.8 M2.6,4.7C1.3,4.8,0.1,3.8,0,2.5
				c0,0,0-0.1,0-0.1C0,1,1.2,0,2.5,0c0,0,0.1,0,0.1,0c1.3-0.1,2.5,0.9,2.6,2.2c0,0,0,0.1,0,0.1c0,1.3-1.1,2.4-2.5,2.4
				C2.7,4.7,2.6,4.7,2.6,4.7"/>
		</g>
		<g id="Groupe_20" transform="translate(47.21 43.509)">
			<path id="Tracé_80" class="st2" d="M2.6,4.7C1.3,4.8,0.1,3.8,0,2.5c0-0.1,0-0.1,0-0.2C0,1,1.1,0,2.5,0c0,0,0.1,0,0.1,0
				c0.7,0,1.5,0.2,2.1,0.7L4.2,1.3C3.8,1,3.2,0.8,2.6,0.8C1.8,0.7,1,1.3,0.9,2.2c0,0,0,0.1,0,0.1c0,0.9,0.7,1.6,1.6,1.6
				c0.1,0,0.1,0,0.2,0c0.6,0,1.2-0.2,1.6-0.5l0.4,0.7C4.1,4.5,3.4,4.7,2.6,4.7"/>
		</g>
	</g>
</g>
<path id="Tracé_82" class="st2" d="M52.8,48.1h0.8v-4.5h-0.8V48.1z"/>
<g id="Groupe_22" transform="translate(54.807 43.646)">
	<path id="Tracé_83" class="st2" d="M0,0v4.5h4.2V3.7H0.8V2.6h2.5V1.8H0.8V0.7h3.2V0H0z"/>
</g>
<g id="Groupe_23" transform="translate(59.373 43.646)">
	<path id="Tracé_84" class="st2" d="M0,0v0.7h1.8v3.7h0.8V0.7h1.8V0H0z"/>
</g>
<g id="Groupe_24" transform="translate(64.494 43.646)">
	<path id="Tracé_85" class="st2" d="M0,0v4.5h4.2V3.7H0.8V2.6h2.5V1.8H0.8V0.7h3.2V0H0z"/>
</g>
<g>
	<defs>
		<rect id="SVGID_00000121965083644282936410000013980602756768812431_" width="176.3" height="48.2"/>
	</defs>
	<clipPath id="SVGID_00000157304749916524393130000000724926701014595261_">
		<use xlink:href="#SVGID_00000121965083644282936410000013980602756768812431_"  style="overflow:visible;"/>
	</clipPath>
	
		<g id="Groupe_26" transform="translate(0 0)" style="clip-path:url(#SVGID_00000157304749916524393130000000724926701014595261_);">
		<g id="Groupe_25" transform="translate(71.208 43.509)">
			<path id="Tracé_86" class="st2" d="M2.6,3.9c0.4,0,0.9-0.1,1.3-0.3V2.4h0.8v1.7C4.1,4.5,3.4,4.7,2.6,4.7C1.3,4.8,0.1,3.8,0,2.5
				c0-0.1,0-0.1,0-0.2C0,1,1.1,0,2.5,0c0,0,0.1,0,0.1,0c0.7,0,1.5,0.2,2.1,0.7L4.2,1.3C3.8,1,3.2,0.8,2.6,0.8C1.8,0.7,1,1.3,0.9,2.2
				c0,0.1,0,0.1,0,0.2c0,0.9,0.7,1.6,1.6,1.6C2.5,3.9,2.6,3.9,2.6,3.9"/>
		</g>
	</g>
</g>
<g id="Groupe_27" transform="translate(77.041 43.646)">
	<path id="Tracé_88" class="st2" d="M0,0v4.5h4.2V3.7H0.8V2.6h2.5V1.8H0.8V0.7h3.2V0H0z"/>
</g>
<g>
	<defs>
		<rect id="SVGID_00000071525697291651968830000003382005973820395167_" width="176.3" height="48.2"/>
	</defs>
	<clipPath id="SVGID_00000136375176692220470820000008311351200324396457_">
		<use xlink:href="#SVGID_00000071525697291651968830000003382005973820395167_"  style="overflow:visible;"/>
	</clipPath>
	
		<g id="Groupe_29" transform="translate(0 0)" style="clip-path:url(#SVGID_00000136375176692220470820000008311351200324396457_);">
		<g id="Groupe_28" transform="translate(82.126 43.646)">
			<path id="Tracé_89" class="st2" d="M0.8,4.5H0V0h0.8l2.9,3.4l0,0c0-0.8-0.1-1.5-0.1-2.2V0h0.8v4.5H3.7L0.8,1.1l0,0
				c0,0.7,0,1.8,0,2.2V4.5z"/>
		</g>
	</g>
</g>
<g id="Groupe_30" transform="translate(87.821 43.646)">
	<path id="Tracé_91" class="st2" d="M0,0v4.5h4.2V3.7H0.8V2.6h2.5V1.8H0.8V0.7h3.2V0H0z"/>
</g>
<g>
	<defs>
		<rect id="SVGID_00000085935611336595879440000016589953002716417191_" width="176.3" height="48.2"/>
	</defs>
	<clipPath id="SVGID_00000096774047020210876920000002693114475945828261_">
		<use xlink:href="#SVGID_00000085935611336595879440000016589953002716417191_"  style="overflow:visible;"/>
	</clipPath>
	
		<g id="Groupe_32" transform="translate(0 0)" style="clip-path:url(#SVGID_00000096774047020210876920000002693114475945828261_);">
		<g id="Groupe_31" transform="translate(92.892 43.647)">
			<path id="Tracé_92" class="st2" d="M2.8,2.1c0.5,0,0.8-0.3,0.8-0.7c0-0.4-0.2-0.7-0.6-0.7c0,0-0.1,0-0.1,0h-2v1.3H2.8z M2.2,2.8
				H0.8v1.6H0V0h2.9c0.8-0.1,1.5,0.5,1.5,1.2c0,0.1,0,0.1,0,0.2c0,0.7-0.6,1.3-1.3,1.4l1.3,1.7h-1L2.2,2.8z"/>
		</g>
	</g>
</g>
<g id="Groupe_33" transform="translate(97.614 43.646)">
	<path id="Tracé_94" class="st2" d="M2.2,0L0,4.5h0.9l0.5-1.1h2.4l0.5,1.1h0.9L3,0H2.2z M2.6,0.8l0.9,1.8H1.7L2.6,0.8z"/>
</g>
<g id="Groupe_34" transform="translate(103.417 43.646)">
	<path id="Tracé_95" class="st2" d="M0,0v4.5h3.8V3.7h-3V0H0z"/>
</g>
<g id="Groupe_35" transform="translate(107.86 43.646)">
	<path id="Tracé_96" class="st2" d="M0,0v4.5h4.2V3.7H0.8V2.6h2.5V1.8H0.8V0.7h3.2V0H0z"/>
</g>
<g>
	<defs>
		<rect id="SVGID_00000062186517691349574350000009056651870709022126_" width="176.3" height="48.2"/>
	</defs>
	<clipPath id="SVGID_00000078002759811995936350000010219865357577364117_">
		<use xlink:href="#SVGID_00000062186517691349574350000009056651870709022126_"  style="overflow:visible;"/>
	</clipPath>
	
		<g id="Groupe_39" transform="translate(0 0)" style="clip-path:url(#SVGID_00000078002759811995936350000010219865357577364117_);">
		<g id="Groupe_36" transform="translate(38.029 7.426)">
			<path id="Tracé_97" class="st2" d="M12.4,3.7c-1.7-0.8-3.6-1.2-5.5-1.3C4.4,2.4,3.1,3,3.1,4c0,2.8,11.4,0.6,11.4,6.6
				c0,2.5-2.3,4.4-7,4.4C4.8,15,2.3,14.3,0,13l1-2.2c1.9,1.1,4.2,1.8,6.4,1.8c2.8,0,4.3-0.8,4.3-2c0-3.1-11.4-0.8-11.4-6.4
				C0.3,1.7,2.7,0,6.8,0c2.3,0,4.6,0.5,6.6,1.6L12.4,3.7z"/>
		</g>
		<g id="Groupe_37" transform="translate(54.999 7.324)">
			<path id="Tracé_98" class="st2" d="M8.3,2.4C5,2.4,2.7,4.7,2.7,7.6c0,2.9,2.2,5.1,5.6,5.1c3.4,0,5.5-2.2,5.5-5.1
				C13.8,4.7,11.7,2.4,8.3,2.4 M8.3,15.1c-4.5,0-8.3-3-8.3-7.6C0,3.1,3.8,0,8.3,0c4.6,0,8.3,3.1,8.3,7.6
				C16.6,12.1,12.9,15.1,8.3,15.1"/>
		</g>
		<g id="Groupe_38" transform="translate(73.831 7.322)">
			<path id="Tracé_99" class="st2" d="M8.5,12.6c1.4,0,2.8-0.3,4.1-0.8V7.6h2.6v5.5c-2,1.3-4.4,2-6.7,2c-4.8,0-8.4-3-8.4-7.6
				C0,3.1,3.7,0,8.4,0c2.4-0.1,4.7,0.7,6.6,2.1l-1.4,2.1c-1.5-1.1-3.3-1.7-5.2-1.7C5,2.4,2.8,4.7,2.8,7.5C2.8,10.5,5,12.6,8.5,12.6"
				/>
		</g>
	</g>
</g>
<g id="Groupe_40" transform="translate(91.95 7.763)">
	<path id="Tracé_101" class="st2" d="M0,14.3V0h13v2.4H2.6v3.5h8.1v2.4H2.6v3.7h10.8v2.4H0z"/>
</g>
<g>
	<defs>
		<rect id="SVGID_00000175319391691448368260000005565381650645927601_" width="176.3" height="48.2"/>
	</defs>
	<clipPath id="SVGID_00000039131879152746238750000018318456199008822685_">
		<use xlink:href="#SVGID_00000175319391691448368260000005565381650645927601_"  style="overflow:visible;"/>
	</clipPath>
	
		<g id="Groupe_45" transform="translate(0 0)" style="clip-path:url(#SVGID_00000039131879152746238750000018318456199008822685_);">
		<g id="Groupe_41" transform="translate(107.983 7.763)">
			<path id="Tracé_102" class="st2" d="M9,7.1c1.2,0.1,2.2-0.8,2.2-2c0-0.1,0-0.2,0-0.2c0.1-1.3-0.8-2.4-2.1-2.5
				c-0.1,0-0.2,0-0.3,0H2.6v4.8H9z M8.8,0c2.6-0.2,4.9,1.7,5.1,4.3c0,0.2,0,0.4,0,0.5c0,2.9-2,4.6-5.1,4.6H2.6v4.8H0V0H8.8z"/>
		</g>
		<g id="Groupe_42" transform="translate(124.064 7.764)">
			<path id="Tracé_103" class="st2" d="M8.9,6.6c1.6,0,2.6-0.9,2.6-2.1c0.1-1.1-0.8-2.1-1.9-2.2c-0.1,0-0.3,0-0.4,0H2.6v4.3H8.9z
				 M6.9,9H2.6v5.3H0V0h9.2c3,0,4.9,1.9,4.9,4.5c0,2.3-1.8,4.2-4.1,4.4l4.2,5.3h-3.3L6.9,9z"/>
		</g>
		<g id="Groupe_43" transform="translate(140.187 7.324)">
			<path id="Tracé_104" class="st2" d="M8.3,2.4C5,2.4,2.7,4.7,2.7,7.6c0,2.9,2.2,5.1,5.6,5.1s5.5-2.2,5.5-5.1
				C13.8,4.7,11.7,2.4,8.3,2.4 M8.3,15.1c-4.5,0-8.3-3-8.3-7.6C0,3.1,3.8,0,8.3,0c4.6,0,8.3,3.1,8.3,7.6
				C16.6,12.1,12.9,15.1,8.3,15.1"/>
		</g>
		<g id="Groupe_44" transform="translate(159.36 7.763)">
			<path id="Tracé_105" class="st2" d="M14.3,14.3V11c0-1.2,0-4.9,0.1-7.1l0,0l-5.9,7.5L2.6,4l0,0C2.6,6.1,2.6,9.8,2.6,11v3.2H0V0
				h2.8l5.7,7.5L14.3,0h2.6v14.3H14.3z"/>
		</g>
	</g>
</g>
</svg>
